<svg width="133.72" height="29" viewBox="0 0 36 36" fill="none" xmlns="http://www.w3.org/2000/svg" role="img">
	<title>Q-SYS logo</title>
	<path d="M28.218 21.56l5.033 2.824v-12.37c0-2.177-1.191-4.148-3.08-5.248L19.694.796a6.346 6.346 0 00-6.147 0L3.068 6.766C1.19 7.866 0 9.836 0 12.013v11.983c0 2.129 1.191 4.129 3.068 5.229l10.478 5.97a6.285 6.285 0 006.147 0l10.86-6.2-4.742-2.694-.673-.376-7.81 4.435c-.44.277-.982.277-1.453 0l-9.728-5.564c-.47-.23-.75-.694-.75-1.23V12.45c0-.536.28-1 .75-1.277l9.734-5.535c.47-.26 1.013-.26 1.453 0l9.776 5.535c.47.276.732.741.732 1.276v8.871l.382.247-.006-.006z" fill="#72ACDA"></path>
	<path d="M22.678 15.813l-.036 4.477a2.068 2.068 0 01-.989 1.676l-3.896 2.306a2.555 2.555 0 01-1.132.282c-.387 0-.78-.105-1.131-.282l-3.789-2.2a2.152 2.152 0 01-1.132-1.888l.036-4.477c.036-.7.387-1.294.989-1.676l4.003-2.306a2.148 2.148 0 011.024-.282c.388 0 .78.106 1.132.282l3.789 2.2a2.151 2.151 0 011.132 1.888z" fill="#1A7AB9"></path>
	</svg>
