<svg xmlns="http://www.w3.org/2000/svg" width="170" height="31.993" viewBox="0 0 32 31.993"><defs><style>.a{fill:#000;}</style></defs><g transform="translate(85 15.997)"><g transform="translate(-85 -15.997)"><path class="a" d="M0,0H26.5c7.762,0,9.087,4.808,9.087,7.875a6.671,6.671,0,0,1-3.938,6.437v.076c3.37.757,5.566,3.483,5.566,8.027,0,3.824-1.78,9.541-11.586,9.541H0ZM10.677,12.305h10.6c2.272,0,3.256-1.249,3.256-2.726s-.984-2.688-3.256-2.688h-10.6ZM22.149,25.1c2.234,0,3.748-1.212,3.748-3.332s-1.514-3.18-3.748-3.18H10.677V25.1Z"/></g></g></svg>
