<?xml version="1.0" encoding="UTF-8"?>
<svg version="1.1" xmlns="http://www.w3.org/2000/svg" width="512" height="512" style="fill:#00AC4F">
<path d="M0 0 C0.75037033 -0.00988449 1.50074066 -0.01976898 2.27384949 -0.029953 C18.81436359 -0.20286672 34.83485964 -0.20470759 50.8984375 4.23828125 C51.84364258 4.49609375 52.78884766 4.75390625 53.76269531 5.01953125 C70.08217239 9.62888993 91.43748314 16.04008749 102.8984375 29.23828125 C101.57853795 30.25358859 100.25863548 31.26889214 98.9387207 32.28417969 C97.76663475 33.18580975 96.59459862 34.08750458 95.42260742 34.98925781 C92.54067082 37.20654467 89.65798523 39.42282837 86.7734375 41.63671875 C80.46409023 46.48139612 74.17510471 51.35132564 67.8984375 56.23828125 C59.57287045 62.72049151 51.21507232 69.1590218 42.84375 75.58203125 C35.72534295 81.04953591 28.63394937 86.55078039 21.55200195 92.06542969 C16.15182115 96.26867791 10.7328405 100.4462143 5.3046875 104.61328125 C1.15602361 107.80456116 -2.97186497 111.02252261 -7.1015625 114.23828125 C-15.4270841 120.72054924 -23.78492828 127.15902226 -32.15625 133.58203125 C-38.48846614 138.44567856 -44.80146527 143.33308324 -51.1015625 148.23828125 C-59.42712955 154.72049151 -67.78492768 161.1590218 -76.15625 167.58203125 C-83.27465705 173.04953591 -90.36605063 178.55078039 -97.44799805 184.06542969 C-102.84242637 188.26420045 -108.25421838 192.43904794 -113.6796875 196.59765625 C-116.32770487 198.63385733 -118.95850025 200.69122461 -121.5859375 202.75390625 C-122.76833008 203.68009766 -122.76833008 203.68009766 -123.97460938 204.625 C-125.50928541 205.8280246 -127.04198568 207.0335759 -128.57226562 208.2421875 C-133.58823475 212.17008411 -138.75358794 215.77671747 -144.1015625 219.23828125 C-149.45018731 204.33401054 -153.1614092 189.29142967 -153.33984375 173.35546875 C-153.34959229 172.62697723 -153.35934082 171.89848572 -153.36938477 171.1479187 C-153.54301129 154.80987969 -153.31076765 139.1446821 -149.1015625 123.23828125 C-148.91432617 122.51882324 -148.72708984 121.79936523 -148.53417969 121.05810547 C-147.27419295 116.36742946 -145.77118808 111.79786439 -144.1015625 107.23828125 C-143.86099121 106.57054687 -143.62041992 105.9028125 -143.37255859 105.21484375 C-136.88704914 87.53088228 -127.40864229 71.481402 -115.1015625 57.23828125 C-114.63137695 56.68978516 -114.16119141 56.14128906 -113.67675781 55.57617188 C-85.63612027 23.18800149 -43.41974496 0.47190269 0 0 Z " transform="translate(153.1015625,92.76171875)"/>
<path d="M0 0 C2 1 2 1 2.76196289 2.94604492 C2.9964917 3.78240479 3.23102051 4.61876465 3.47265625 5.48046875 C3.73240234 6.39763672 3.99214844 7.31480469 4.25976562 8.25976562 C4.52466797 9.22591797 4.78957031 10.19207031 5.0625 11.1875 C5.33126953 12.13431641 5.60003906 13.08113281 5.87695312 14.05664062 C9.3198172 26.35994292 9.28874953 38.08113523 9.35009766 50.79760742 C9.36652222 53.28077657 9.39362884 55.76390118 9.43212891 58.24682617 C9.67800924 74.22797852 8.77543696 88.69296271 4 104 C3.65936523 105.10512939 3.31873047 106.21025879 2.96777344 107.34887695 C2.11656709 109.89687823 1.19082478 112.38356276 0.1875 114.875 C-0.1530542 115.73955811 -0.4936084 116.60411621 -0.84448242 117.49487305 C-7.71188234 134.53152002 -17.3218321 150.46703502 -29.97265625 163.8515625 C-31.80936506 165.79797839 -33.49367149 167.80523449 -35.1875 169.875 C-57.1226228 194.88608255 -90.75179548 210.93913921 -123 217 C-124.78083984 217.33837891 -124.78083984 217.33837891 -126.59765625 217.68359375 C-165.08027432 223.65148639 -202.17355166 215.72064304 -236 197.25 C-236.67716064 196.88543701 -237.35432129 196.52087402 -238.05200195 196.14526367 C-241.59437859 194.14037849 -243.39433111 192.71359411 -245 189 C-243.98164063 188.22398437 -242.96328125 187.44796875 -241.9140625 186.6484375 C-233.39788226 180.15144238 -224.91395816 173.61539614 -216.46459961 167.03173828 C-208.98496658 161.20474333 -201.46771561 155.42791479 -193.9453125 149.65625 C-187.61309636 144.79260269 -181.30009723 139.90519801 -175 135 C-166.67443295 128.51778974 -158.31663482 122.07925945 -149.9453125 115.65625 C-143.61309636 110.79260269 -137.30009723 105.90519801 -131 101 C-122.67443295 94.51778974 -114.31663482 88.07925945 -105.9453125 81.65625 C-99.61309636 76.79260269 -93.30009723 71.90519801 -87 67 C-78.67443295 60.51778974 -70.31663482 54.07925945 -61.9453125 47.65625 C-55.61309636 42.79260269 -49.30009723 37.90519801 -43 33 C-35.68713771 27.30627238 -28.35157429 21.64363279 -21 16 C-19.86439636 15.12524267 -18.72898394 14.25023705 -17.59375 13.375 C-11.75829275 8.87711197 -5.90823248 4.40221244 0 0 Z " transform="translate(503,201)"/>
<path d="M0 0 C3.11050237 1.47400672 5.90440287 3.34155474 8.71875 5.3046875 C9.30398438 5.69591797 9.88921875 6.08714844 10.4921875 6.49023438 C13.7113261 8.71631302 15.52415587 10.43696788 17.09375 13.9921875 C16.63800095 14.29110397 16.18225189 14.59002045 15.71269226 14.897995 C-5.74322695 28.97397286 -27.15706591 43.1055526 -48.40625 57.4921875 C-62.83890938 67.26328678 -77.33734348 76.92543146 -91.90625 86.4921875 C-108.72310877 97.53567264 -125.44347103 108.71417318 -142.10424805 119.99169922 C-143.84941592 121.17289691 -145.5946138 122.35405028 -147.33984375 123.53515625 C-148.17492966 124.10036987 -149.01001556 124.6655835 -149.8704071 125.2479248 C-154.7096617 128.51941466 -159.56333704 131.76715037 -164.44140625 134.98046875 C-174.33331208 141.49694102 -183.9715911 148.07161876 -193.14550781 155.56884766 C-196.60724329 158.36722783 -200.1376855 161.07839 -203.65625 163.8046875 C-205.18634922 164.99329484 -206.71629614 166.18209826 -208.24609375 167.37109375 C-209.0129248 167.96680176 -209.77975586 168.56250977 -210.56982422 169.17626953 C-212.91342053 170.99776058 -215.25574427 172.82087527 -217.59765625 174.64453125 C-225.22102524 180.58014343 -232.85647776 186.49851045 -240.51953125 192.3828125 C-247.67378773 197.88641695 -254.78473858 203.44633635 -261.90625 208.9921875 C-271.09271063 216.14611035 -280.28461727 223.29151093 -289.51953125 230.3828125 C-296.67378773 235.88641695 -303.78473858 241.44633635 -310.90625 246.9921875 C-331.74696885 263.2218216 -331.74696885 263.2218216 -338.80078125 268.5859375 C-341.0442961 270.32430876 -343.2375508 272.08471261 -345.41796875 273.8984375 C-346.29328247 274.6114502 -346.29328247 274.6114502 -347.1862793 275.33886719 C-348.30535493 276.25191854 -349.41310698 277.17908786 -350.50708008 278.12207031 C-352.03125 279.3515625 -352.03125 279.3515625 -354.90625 280.9921875 C-359.54221334 280.19830686 -363.4774141 276.6182831 -367.21875 273.8671875 C-367.86392578 273.39925781 -368.50910156 272.93132812 -369.17382812 272.44921875 C-370.75473894 271.3015946 -372.33097301 270.14753273 -373.90625 268.9921875 C-372.78274315 265.62166695 -372.28951247 265.29884808 -369.43603516 263.44970703 C-368.69225616 262.96176666 -367.94847717 262.47382629 -367.18215942 261.97109985 C-366.36149994 261.4443869 -365.54084045 260.91767395 -364.6953125 260.375 C-363.4088533 259.53477798 -363.4088533 259.53477798 -362.09640503 258.67758179 C-360.22936362 257.45908744 -358.35996153 256.24420453 -356.48852539 255.0324707 C-351.43174226 251.75743861 -346.39263574 248.45539104 -341.3515625 245.15625 C-340.31159119 244.47657166 -339.27161987 243.79689331 -338.20013428 243.09661865 C-327.86467771 236.33247779 -317.63021994 229.42317991 -307.40625 222.4921875 C-288.11406291 209.42770914 -268.67473855 196.5944697 -249.20495605 183.79673767 C-240.00507664 177.74698434 -230.8413538 171.64451372 -221.69140625 165.51953125 C-217.22819772 162.53390139 -212.75208366 159.56893047 -208.26721191 156.61595154 C-185.01960524 141.38444414 -185.01960524 141.38444414 -162.88818359 124.59863281 C-159.17112407 121.58579077 -155.37626604 118.672084 -151.59375 115.7421875 C-150.08713493 114.57044706 -148.58062134 113.3985761 -147.07421875 112.2265625 C-142.49328134 108.66810942 -137.89370712 105.1343754 -133.29296875 101.6015625 C-126.13871227 96.09795805 -119.02776142 90.53803865 -111.90625 84.9921875 C-102.72636989 77.84338921 -93.54170618 70.70223467 -84.3125 63.6171875 C-80.16383632 60.42590775 -76.03592519 57.2079745 -71.90625 53.9921875 C-66.75067648 49.97753125 -61.58940772 45.97117727 -56.40625 41.9921875 C-51.32942102 38.09379436 -46.27047927 34.17304749 -41.21875 30.2421875 C-40.46126465 29.65284424 -39.7037793 29.06350098 -38.92333984 28.45629883 C-35.00544262 25.40707378 -31.08957473 22.35527172 -27.17578125 19.30078125 C-23.4353374 16.38191521 -19.68583101 13.47496992 -15.93359375 10.57128906 C-14.02795585 9.0869844 -12.1374829 7.58540301 -10.25 6.078125 C-9.17735414 5.23663385 -8.10445744 4.39546231 -7.03125 3.5546875 C-5.67386719 2.47380859 -5.67386719 2.47380859 -4.2890625 1.37109375 C-1.90625 -0.0078125 -1.90625 -0.0078125 0 0 Z " transform="translate(434.90625,116.0078125)"/>
<path d="M0 0 C3.43031348 1.32397332 5.77084238 4.02632685 8.31958008 6.5871582 C9.16359375 7.38863281 9.16359375 7.38863281 10.0246582 8.20629883 C11.62036133 9.79418945 11.62036133 9.79418945 14.00708008 12.7746582 C13.90487671 14.77410889 13.90487671 14.77410889 13.00708008 16.7746582 C11.29043579 18.30279541 11.29043579 18.30279541 9.02905273 19.76391602 C8.18371979 20.31839417 7.33838684 20.87287231 6.46743774 21.44415283 C5.08327164 22.32704987 5.08327164 22.32704987 3.67114258 23.2277832 C2.72201996 23.84683533 1.77289734 24.46588745 0.79501343 25.10369873 C-2.25226268 27.08843757 -5.30954111 29.05708033 -8.36791992 31.0246582 C-12.35786654 33.60864188 -16.34378559 36.19878947 -20.32885742 38.7902832 C-21.29329773 39.41605759 -22.25773804 40.04183197 -23.25140381 40.68656921 C-28.65919177 44.20775452 -33.93120281 47.8392624 -39.10473633 51.69799805 C-45.6369971 56.39482055 -52.43885885 60.71148531 -59.17053223 65.11514282 C-75.77790325 75.98327046 -92.3015317 86.96964287 -108.74291992 98.0871582 C-109.6557373 98.70432709 -110.56855469 99.32149597 -111.5090332 99.95736694 C-115.03584336 102.34210734 -118.56259563 104.72693313 -122.08898926 107.11228943 C-128.37224356 111.36056019 -134.6743572 115.5790401 -140.99291992 119.7746582 C-151.48037022 126.74565295 -161.93210165 133.76957379 -172.37744141 140.8034668 C-174.30534573 142.10138221 -176.23371925 143.398601 -178.16259766 144.69506836 C-190.28679851 152.84559598 -202.3679869 160.98245256 -213.80541992 170.0871582 C-214.99938614 171.03122452 -216.19339789 171.97523326 -217.38745117 172.91918945 C-218.28197998 173.62809326 -218.28197998 173.62809326 -219.19458008 174.35131836 C-222.12085043 176.66738626 -225.05729179 178.97047172 -227.99291992 181.2746582 C-229.15963744 182.19126015 -230.32630406 183.10792687 -231.49291992 184.0246582 C-261.82625326 207.85799154 -292.15958659 231.69132487 -322.49291992 255.5246582 C-323.07130615 255.9791333 -323.64969238 256.4336084 -324.24560547 256.90185547 C-325.40320719 257.81134191 -326.56092062 258.7206862 -327.71875 259.62988281 C-330.77507834 262.03020611 -333.82898402 264.43353311 -336.87963867 266.84106445 C-337.51579102 267.34250977 -338.15194336 267.84395508 -338.80737305 268.3605957 C-340.02683961 269.32192701 -341.24562553 270.28412255 -342.46362305 271.24731445 C-349.508039 276.79695985 -349.508039 276.79695985 -352.62573242 276.65356445 C-356.99184842 275.51391701 -360.82764131 273.69463389 -364.86791992 271.7121582 C-365.65166992 271.33510742 -366.43541992 270.95805664 -367.24291992 270.56958008 C-369.16287045 269.64472586 -371.07835892 268.71061843 -372.99291992 267.7746582 C-372.99291992 267.1146582 -372.99291992 266.4546582 -372.99291992 265.7746582 C-370.66261642 264.18187706 -368.33397395 262.7098762 -365.91479492 261.26293945 C-364.42999912 260.35534819 -362.94629695 259.44596567 -361.46362305 258.53491211 C-360.33404175 257.84199066 -360.33404175 257.84199066 -359.18164062 257.1350708 C-355.9971286 255.15571808 -352.87291008 253.09260674 -349.75854492 251.00512695 C-348.8611837 250.40450439 -348.8611837 250.40450439 -347.94569397 249.79174805 C-346.69757968 248.95501925 -345.44999561 248.11749909 -344.20291138 247.27923584 C-340.65135203 244.89265431 -337.09359402 242.51534559 -333.53588867 240.13793945 C-332.39427528 239.37489502 -332.39427528 239.37489502 -331.229599 238.59643555 C-321.70181133 232.23499314 -312.12663011 225.94548098 -302.55541992 219.6496582 C-291.18793415 212.17202891 -279.83033744 204.6807377 -268.51635742 197.12231445 C-267.58027145 196.49707886 -266.64418549 195.87184326 -265.67973328 195.22766113 C-261.23736455 192.25935739 -256.79727195 189.28772039 -252.36035156 186.3112793 C-243.46989506 180.35754289 -234.51369214 174.53303734 -225.45227051 168.84260559 C-220.05021351 165.44964959 -214.6887771 162.01282393 -209.43041992 158.3996582 C-208.65778809 157.86985352 -207.88515625 157.34004883 -207.08911133 156.79418945 C-199.22097214 151.33681616 -191.70828905 145.45012565 -184.20141602 139.51098633 C-180.55614179 136.64505771 -176.86859079 133.83502945 -173.18041992 131.0246582 C-171.77280231 129.95052532 -170.36524867 128.8763086 -168.95776367 127.80200195 C-168.2885791 127.29137207 -167.61939453 126.78074219 -166.92993164 126.25463867 C-161.94007667 122.44212281 -156.96821624 118.6061364 -151.99291992 114.7746582 C-149.82647341 113.10770528 -147.65969495 111.44118407 -145.49291992 109.7746582 C-144.40958054 108.94133273 -143.3262472 108.10799941 -142.24291992 107.2746582 C-105.40958659 78.94132487 -68.57625326 50.60799154 -31.74291992 22.2746582 C-31.20618652 21.86175537 -30.66945313 21.44885254 -30.11645508 21.0234375 C-29.03812566 20.1940157 -27.95967603 19.36475018 -26.88110352 18.53564453 C-24.09518047 16.39376084 -21.3116916 14.24882046 -18.53198242 12.09887695 C-16.31945455 10.38792654 -14.10224825 8.68342721 -11.87963867 6.9855957 C-10.16337624 5.67111054 -8.45458223 4.34662788 -6.76245117 3.0012207 C-2.50688832 -0.28345681 -2.50688832 -0.28345681 0 0 Z " transform="translate(457.992919921875,133.225341796875)"/>
<path d="M0 0 C6.36815851 0.33108789 10.92512475 2.07374744 16.5 5.0625 C17.22703125 5.43955078 17.9540625 5.81660156 18.703125 6.20507812 C20.47450493 7.12572954 22.23810661 8.06132136 24 9 C19.47950729 14.10970223 14.00935842 17.35505677 8.25 20.9375 C5.96826861 22.37749256 3.68797116 23.81947125 1.41015625 25.265625 C0.80980057 25.64643723 0.20944489 26.02724945 -0.40910339 26.41960144 C-7.44957172 30.89975151 -14.3798799 35.54296021 -21.3125 40.1875 C-34.27821436 48.86493858 -47.28230158 57.4821892 -60.3125 66.0625 C-61.23013123 66.6668689 -62.14776245 67.27123779 -63.09320068 67.8939209 C-67.80229762 70.99531211 -72.51182439 74.09604966 -77.22167969 77.19628906 C-86.02282752 82.9896152 -94.82250751 88.78516811 -103.6211853 94.58224487 C-106.32890996 96.36596601 -109.03711242 98.14895976 -111.74536133 99.93188477 C-115.96798036 102.71261501 -120.18784029 105.49748668 -124.40557861 108.28561401 C-126.19737726 109.46962926 -127.98986052 110.65260889 -129.78289795 111.83474731 C-132.59317739 113.68855871 -135.40040717 115.54691035 -138.20703125 117.40625 C-139.05180527 117.96247543 -139.89657928 118.51870087 -140.76695251 119.09178162 C-148.77884635 124.41211267 -156.30459241 130.29254255 -163.82373047 136.27978516 C-167.4523731 139.1480167 -171.13267469 141.94793878 -174.8125 144.75 C-176.22015842 145.8240794 -177.62771309 146.89829479 -179.03515625 147.97265625 C-179.70434082 148.48328613 -180.37352539 148.99391602 -181.06298828 149.52001953 C-186.05284325 153.33253539 -191.02470368 157.1685218 -196 161 C-198.16644651 162.66695292 -200.33322497 164.33347413 -202.5 166 C-203.58333938 166.83332547 -204.66667272 167.6666588 -205.75 168.5 C-225.25 183.5 -225.25 183.5 -226.8737793 184.74902344 C-227.96123001 185.5855491 -229.04863207 186.42213803 -230.13598633 187.25878906 C-232.78093787 189.29379288 -235.42681112 191.32756533 -238.07421875 193.359375 C-244.31787502 198.15375095 -250.54038067 202.97411088 -256.75 207.8125 C-264.8175508 214.09694941 -272.93317278 220.31645938 -281.06298828 226.52001953 C-286.05284325 230.33253539 -291.02470368 234.1685218 -296 238 C-298.16644651 239.66695292 -300.33322497 241.33347413 -302.5 243 C-303.58333938 243.83332547 -304.66667272 244.6666588 -305.75 245.5 C-307.91666667 247.16666667 -310.08333333 248.83333333 -312.25 250.5 C-312.78633057 250.91258057 -313.32266113 251.32516113 -313.87524414 251.75024414 C-314.95769106 252.58285808 -316.0402105 253.41537775 -317.12280273 254.24780273 C-319.84530322 256.34137244 -322.56649085 258.43660817 -325.28515625 260.53515625 C-332.47867156 266.08440896 -339.71762791 271.56774406 -347 277 C-351.32504836 275.34136495 -354.09418825 272.128959 -357.25 268.875 C-357.80429687 268.31167969 -358.35859375 267.74835938 -358.9296875 267.16796875 C-360.29104485 265.78313972 -361.64614859 264.39216796 -363 263 C-361.63912538 259.78377405 -360.33807003 258.23389026 -357.41625977 256.34399414 C-356.67256134 255.8561293 -355.92886292 255.36826447 -355.16262817 254.86561584 C-354.34712494 254.34406418 -353.5316217 253.82251251 -352.69140625 253.28515625 C-351.83513641 252.72642319 -350.97886658 252.16769012 -350.09664917 251.59202576 C-348.23588365 250.3789719 -346.37240111 249.17007806 -344.50656128 247.96484375 C-339.4629248 244.70583199 -334.4400947 241.41497415 -329.4140625 238.12890625 C-328.37738937 237.45231964 -327.34071625 236.77573303 -326.27262878 236.0786438 C-315.9265157 229.31884325 -305.67315363 222.42550284 -295.4375 215.5 C-293.6523886 214.2936348 -291.86723216 213.08733626 -290.08203125 211.88110352 C-284.7196574 208.25657437 -279.35960264 204.62862524 -274 201 C-266.85631091 196.16349024 -259.7110373 191.32934167 -252.5625 186.5 C-251.24593414 185.61029007 -251.24593414 185.61029007 -249.902771 184.7026062 C-234.09356264 174.02508104 -218.18366369 163.50397833 -202.21508789 153.06640625 C-192.64541187 146.79963839 -183.19611894 140.39468999 -173.84616089 133.80412292 C-168.03372692 129.70906349 -162.14992166 125.74859238 -156.1875 121.875 C-148.68569728 116.93378852 -141.59843393 111.70012997 -134.66796875 105.9921875 C-130.71576665 102.73818989 -126.64462192 99.65085038 -122.5625 96.5625 C-116.18357556 91.72176621 -109.93772387 86.74224636 -103.74291992 81.66870117 C-98.63864755 77.49581456 -93.44752035 73.45686201 -88.20703125 69.45703125 C-84.80145877 66.8559742 -81.42960435 64.21308007 -78.0625 61.5625 C-77.48097168 61.10472168 -76.89944336 60.64694336 -76.30029297 60.17529297 C-75.1220986 59.24740379 -73.94403901 58.31934346 -72.76611328 57.39111328 C-69.84628952 55.09125763 -66.92298107 52.79584055 -64 50.5 C-62.83331639 49.5833549 -61.66664973 48.66668823 -60.5 47.75 C-25.5 20.25 -25.5 20.25 -23.74682617 18.87255859 C-22.59067103 17.96411636 -21.43458279 17.05558897 -20.27856445 16.14697266 C-17.20164025 13.72873719 -14.12326447 11.31237739 -11.04296875 8.8984375 C-10.39779297 8.39248047 -9.75261719 7.88652344 -9.08789062 7.36523438 C-7.84352187 6.38943441 -6.59874557 5.41415388 -5.35351562 4.43945312 C-2.58536226 2.3253654 -2.58536226 2.3253654 0 0 Z " transform="translate(404,103)"/>
<path d="M0 0 C1.51207031 0.41572266 1.51207031 0.41572266 3.0546875 0.83984375 C4.46777816 1.17598702 5.8819266 1.50770201 7.296875 1.8359375 C11.23611496 2.76856283 15.1463577 3.78552643 19.0546875 4.83984375 C17.71074506 8.87167107 15.17087788 9.85053414 11.6796875 11.90234375 C3.81931439 16.6597445 -3.82074889 21.71771111 -11.4453125 26.83984375 C-19.16243677 32.01534349 -26.89373962 37.14194039 -34.80957031 42.01049805 C-41.1786061 45.94426546 -47.43518668 50.04822696 -53.6953125 54.15234375 C-54.25605469 54.51991791 -54.81679688 54.88749207 -55.39453125 55.26620483 C-58.18960126 57.09870852 -60.98426934 58.93182367 -63.77880859 60.76513672 C-68.34822523 63.75903823 -72.92666892 66.73892711 -77.5078125 69.71484375 C-78.31774658 70.24126465 -79.12768066 70.76768555 -79.9621582 71.31005859 C-83.71011943 73.74457297 -87.46113245 76.17416424 -91.21875 78.59375 C-94.71247398 80.84356454 -98.20064179 83.10170762 -101.68359375 85.36816406 C-103.26589214 86.39775114 -104.84931992 87.42560366 -106.43359375 88.45214844 C-117.47432032 95.62365487 -128.10514197 103.08990144 -138.41796875 111.2734375 C-143.19015661 115.05755582 -148.06081126 118.70251912 -152.9453125 122.33984375 C-160.14981266 127.71578704 -167.28139544 133.17465759 -174.36499023 138.70874023 C-181.48246376 144.26845673 -188.65484451 149.75443934 -195.83642578 155.23095703 C-199.37518131 157.93070222 -202.91003973 160.63554064 -206.4453125 163.33984375 C-207.86196069 164.42320125 -209.27862735 165.50653459 -210.6953125 166.58984375 C-211.3965625 167.12609375 -212.0978125 167.66234375 -212.8203125 168.21484375 C-253.1953125 199.08984375 -253.1953125 199.08984375 -255.32128906 200.71557617 C-256.73471901 201.79644392 -258.14813054 202.87733576 -259.56152344 203.95825195 C-263.15255951 206.7045088 -266.7439373 209.45031678 -270.3359375 212.1953125 C-276.71213086 217.068546 -283.08638064 221.94409895 -289.4453125 226.83984375 C-295.79619608 231.72939218 -302.16212716 236.5990853 -308.53125 241.46484375 C-311.49788844 243.73166655 -314.46112973 246.0028297 -317.421875 248.27734375 C-325.18853374 254.23945437 -332.97931692 260.14493115 -340.9453125 265.83984375 C-345.52998717 264.29733639 -347.56836347 260.64281066 -350.1953125 256.83984375 C-350.65421875 256.19789063 -351.113125 255.5559375 -351.5859375 254.89453125 C-354.9453125 250.11542039 -354.9453125 250.11542039 -354.9453125 247.83984375 C-352.64014705 246.12665271 -350.3300469 244.54121328 -347.92578125 242.9765625 C-347.17743515 242.4814064 -346.42908905 241.98625031 -345.6580658 241.47608948 C-344.01988513 240.39314041 -342.37962899 239.31332618 -340.73760986 238.23620605 C-336.26791086 235.30388577 -331.8130987 232.34905753 -327.35546875 229.3984375 C-326.42120056 228.78102692 -325.48693237 228.16361633 -324.52435303 227.52749634 C-314.326664 220.78348415 -304.19792488 213.93842849 -294.0703125 207.08984375 C-281.11947761 198.33851521 -268.14769928 189.62063646 -255.1328125 180.96484375 C-245.74621854 174.72106286 -236.38616391 168.44416738 -227.08398438 162.07495117 C-217.12932488 155.26611678 -207.13118901 148.52175263 -197.1328125 141.77734375 C-195.73582123 140.83494339 -195.73582123 140.83494339 -194.31060791 139.87350464 C-182.56898852 131.95496546 -170.80925655 124.06456625 -159.01843262 116.21948242 C-154.45047392 113.17955608 -149.88559817 110.13500253 -145.32080078 107.09033203 C-143.20323376 105.67794837 -141.0843177 104.26768062 -138.96435547 102.85888672 C-128.49022244 95.88682375 -118.55817893 88.54603403 -108.90576172 80.47363281 C-105.56759829 77.69169139 -102.19357916 74.95402553 -98.8203125 72.21484375 C-97.82221558 71.40273437 -97.82221558 71.40273437 -96.80395508 70.57421875 C-91.99123393 66.66598473 -87.12857587 62.82611212 -82.24267578 59.01000977 C-76.30396433 54.36074589 -70.46288873 49.59339507 -64.6171875 44.828125 C-60.96989656 41.85567546 -57.29666949 38.91684807 -53.6171875 35.984375 C-50.82206199 33.740919 -48.04281921 31.47879517 -45.26489258 29.21411133 C-32.51626254 18.82360939 -32.51626254 18.82360939 -26.03100586 13.82006836 C-23.13657646 11.5865619 -20.3166636 9.31264579 -17.5703125 6.8984375 C-12.00432896 2.10228712 -7.71880001 -1.5689549 0 0 Z " transform="translate(378.9453125,94.16015625)"/>
<path d="M0 0 C3.70605319 3.49835844 6.52199492 7.00850064 9.3125 11.3125 C10.00988281 12.38113281 10.70726562 13.44976562 11.42578125 14.55078125 C11.94527344 15.35902344 12.46476562 16.16726562 13 17 C8.60607184 21.86993704 3.47539041 25.18647586 -2 28.75 C-4.18185744 30.18750871 -6.36285241 31.62626408 -8.54296875 33.06640625 C-9.13079636 33.45395584 -9.71862396 33.84150543 -10.32426453 34.24079895 C-17.25401984 38.81503713 -24.12867308 43.4704863 -31.00454712 48.12515259 C-34.9498997 50.79592262 -38.89698823 53.46412558 -42.84375 56.1328125 C-43.65854324 56.68385147 -44.47333649 57.23489044 -45.31282043 57.80262756 C-55.30844975 64.56223513 -65.30933821 71.31404523 -75.3125 78.0625 C-76.23690887 78.68615448 -77.16131775 79.30980896 -78.11373901 79.95236206 C-89.08624733 87.35365508 -100.07254805 94.73241573 -111.09570312 102.05810547 C-121.43743131 108.93989056 -131.72209064 115.90605164 -142.01147461 122.86572266 C-143.61962337 123.9534587 -145.22777775 125.04118645 -146.8359375 126.12890625 C-147.6501265 126.67961792 -148.46431549 127.23032959 -149.30317688 127.79772949 C-156.52840137 132.68361953 -163.76015421 137.5597925 -170.99336243 142.43385315 C-178.29811333 147.35617151 -185.59933635 152.28369751 -192.89945984 157.21287537 C-197.1067611 160.0524488 -201.31810513 162.88562173 -205.539505 165.70419312 C-214.7650423 171.86502506 -223.68854519 178.05293259 -232.01171875 185.3984375 C-235.19853782 188.17284469 -238.47636259 190.78456554 -241.8125 193.375 C-246.92685288 197.35505227 -251.98043214 201.40102787 -257 205.5 C-261.9393436 209.53220165 -266.90819449 213.51811019 -271.9375 217.4375 C-277.1975569 221.53937923 -282.36250363 225.74578038 -287.5 230 C-293.18706954 234.70930607 -298.92338185 239.33859086 -304.74853516 243.87573242 C-310.00258985 247.97655002 -315.17015716 252.18033833 -320.32055664 256.41040039 C-321.57346603 257.43547865 -322.83337261 258.45206783 -324.1003418 259.4597168 C-325.41024334 260.52181278 -326.68930256 261.62270495 -327.94067383 262.75317383 C-332.74214775 266.86220158 -332.74214775 266.86220158 -336.17285156 267.23803711 C-338.5019243 267.02609455 -340.66409014 266.60890414 -342.9375 266.0625 C-343.72366699 265.90225342 -344.50983398 265.74200684 -345.31982422 265.5769043 C-350.68805272 264.44039748 -355.88240793 262.99017469 -361 261 C-357.55566479 257.18378283 -353.62211141 254.65448195 -349.3125 251.9375 C-347.77335913 250.95454979 -346.2342988 249.97147346 -344.6953125 248.98828125 C-343.91188477 248.49021973 -343.12845703 247.9921582 -342.32128906 247.47900391 C-338.76464909 245.21289905 -335.22622991 242.9189316 -331.6875 240.625 C-330.27083774 239.70832652 -328.85417099 238.79165998 -327.4375 237.875 C-320.13461017 233.14575829 -312.84193724 228.40078064 -305.54833984 223.65722656 C-301.36604137 220.93741031 -297.18298696 218.21875722 -293 215.5 C-291.33332961 214.41667239 -289.66666295 213.33333905 -288 212.25 C-258 192.75 -258 192.75 -255.49902344 191.12475586 C-253.8351356 190.04296868 -252.1717226 188.96045082 -250.50878906 187.87719727 C-246.30322985 185.13897133 -242.08977021 182.41456715 -237.859375 179.71484375 C-227.92249497 173.3546348 -218.31712017 166.73729059 -208.97851562 159.52685547 C-206.93408061 157.94912885 -204.88212648 156.38165436 -202.828125 154.81640625 C-199.26138966 152.0970214 -195.70034109 149.37031393 -192.14111328 146.64111328 C-188.59649434 143.92424572 -185.04806623 141.21236299 -181.5 138.5 C-180.08331485 137.41669084 -178.66664819 136.3333575 -177.25 135.25 C-129.08333333 98.41666667 -80.91666667 61.58333333 -32.75 24.75 C-32.04762207 24.21286377 -31.34524414 23.67572754 -30.62158203 23.12231445 C-29.21640113 22.04781191 -27.81112891 20.9734288 -26.40576172 19.89916992 C-22.68757365 17.05673914 -18.97137123 14.21175821 -15.2578125 11.36328125 C-14.48244141 10.76902344 -13.70707031 10.17476562 -12.90820312 9.5625 C-11.41933818 8.42133405 -9.93102983 7.27944145 -8.44335938 6.13671875 C-7.43885742 5.36714844 -7.43885742 5.36714844 -6.4140625 4.58203125 C-5.8257666 4.13061768 -5.2374707 3.6792041 -4.63134766 3.21411133 C-3.12389132 2.09220466 -1.56352395 1.0423493 0 0 Z " transform="translate(476,152)"/>
<path d="M0 0 C1.37174861 2.55439402 2.72225408 5.11664431 4.0625 7.6875 C4.45244141 8.40873047 4.84238281 9.12996094 5.24414062 9.87304688 C5.60830078 10.57880859 5.97246094 11.28457031 6.34765625 12.01171875 C6.68804932 12.65584717 7.02844238 13.29997559 7.37915039 13.96362305 C8.24014372 16.78766761 8.04801737 18.23279331 7 21 C4.62792969 23.09863281 4.62792969 23.09863281 1.421875 25.203125 C0.8366507 25.59363037 0.25142639 25.98413574 -0.35153198 26.38647461 C-2.30887029 27.68820316 -4.27931142 28.96859079 -6.25 30.25 C-7.64803081 31.17516079 -9.04498142 32.10195572 -10.44091797 33.03027344 C-13.41782091 35.00816585 -16.39928512 36.97891017 -19.38378906 38.9453125 C-26.23486559 43.46808643 -33.02430019 48.08196745 -39.81945801 52.68811035 C-43.72318389 55.33268983 -47.63132423 57.9707297 -51.5390625 60.609375 C-53.11883497 61.67640288 -54.69858758 62.74346016 -56.27832031 63.81054688 C-57.05921021 64.33801514 -57.8401001 64.8654834 -58.64465332 65.40893555 C-64.8277448 69.58568674 -71.01017814 73.76341211 -77.19271851 77.940979 C-79.50516626 79.50349082 -81.81764168 81.06596168 -84.13012695 82.62841797 C-91.04041107 87.29743411 -97.95062634 91.96655199 -104.86050415 96.63616943 C-120.72973622 107.36040577 -136.60074543 118.08199531 -152.47637939 128.79675293 C-159.98449406 133.86414471 -167.49234294 138.93193027 -175 144 C-176.22961456 144.83005554 -176.22961456 144.83005554 -177.48406982 145.67687988 C-179.94646591 147.33919297 -182.4087817 149.00162494 -184.87109375 150.6640625 C-185.67147064 151.20432571 -186.47184753 151.74458893 -187.29647827 152.30122375 C-191.22561334 154.95394489 -195.15311955 157.60901749 -199.07714844 160.26928711 C-205.78184026 164.81298679 -212.49396331 169.33987273 -219.26953125 173.77734375 C-231.3051715 181.70570914 -242.00538212 189.99265057 -252.171875 200.21728516 C-254.72708897 202.70902826 -257.41315937 205.03407341 -260.11401367 207.36572266 C-262.75071938 209.65052629 -265.31046598 212.00937721 -267.875 214.375 C-272.35998016 218.50322037 -276.87509294 222.59514804 -281.4140625 226.6640625 C-283.33509685 228.39937751 -285.24581641 230.14314581 -287.1484375 231.8984375 C-287.6846875 232.39279297 -288.2209375 232.88714844 -288.7734375 233.39648438 C-289.81400022 234.35710142 -290.85314583 235.31925662 -291.890625 236.28320312 C-304.84905781 248.24348638 -323.29737254 245.257726 -340 245 C-337.5301859 242.41731344 -335.15734261 240.28805863 -332.12109375 238.40625 C-331.37472656 237.93960938 -330.62835938 237.47296875 -329.859375 236.9921875 C-329.06015625 236.49976563 -328.2609375 236.00734375 -327.4375 235.5 C-325.7173599 234.42722445 -323.99731031 233.35430376 -322.27734375 232.28125 C-321.39933105 231.73597656 -320.52131836 231.19070313 -319.61669922 230.62890625 C-315.56474791 228.10654955 -311.53289585 225.55266795 -307.5 223 C-305.91677513 221.99982829 -304.33344146 220.99982878 -302.75 220 C-301.96625 219.505 -301.1825 219.01 -300.375 218.5 C-298 217 -295.625 215.5 -293.25 214 C-292.46665283 213.5052417 -291.68330566 213.0104834 -290.8762207 212.50073242 C-289.28886474 211.49821757 -287.70146221 210.49577646 -286.11401367 209.4934082 C-282.21684605 207.03248037 -278.32042899 204.57038288 -274.42578125 202.10546875 C-273.66740967 201.62585693 -272.90903809 201.14624512 -272.12768555 200.65209961 C-270.58043274 199.67329864 -269.03372268 198.69363922 -267.48754883 197.71313477 C-262.99948389 194.8727908 -258.49137044 192.06920814 -253.9609375 189.296875 C-243.46492415 182.85479939 -233.39589109 176.35148562 -223.88964844 168.52539062 C-219.97507002 165.36540536 -215.94594714 162.35180795 -211.9375 159.3125 C-210.1249246 157.93499504 -208.31242533 156.5573899 -206.5 155.1796875 C-205.58992187 154.48842773 -204.67984375 153.79716797 -203.7421875 153.08496094 C-201.05479496 151.04166212 -198.37054801 148.99431181 -195.6875 146.9453125 C-187.09159241 140.38225325 -178.47648333 133.84798474 -169.8125 127.375 C-162.64828168 122.0212871 -155.56281146 116.57662185 -148.51806641 111.06689453 C-142.95556372 106.72323253 -137.33120776 102.46962704 -131.67553711 98.24829102 C-127.17625508 94.88850654 -122.71101506 91.48807653 -118.26635742 88.05615234 C-113.19338012 84.14164359 -108.09793787 80.25692879 -103 76.375 C-102.10321533 75.69211914 -101.20643066 75.00923828 -100.2824707 74.30566406 C-98.43967345 72.90259366 -96.5968181 71.49959957 -94.75390625 70.09667969 C-91.20431392 67.39420638 -87.65567203 64.6904871 -84.10717773 61.98657227 C-82.36460669 60.65879808 -80.62193037 59.33116205 -78.87915039 58.00366211 C-74.48927085 54.65971128 -70.10074856 51.31400652 -65.71484375 47.96484375 C-57.10911928 41.39620777 -48.48535418 34.85480573 -39.8125 28.375 C-31.83955782 22.41530813 -23.95434128 16.35070616 -16.11328125 10.21875 C-15.11482178 9.44144531 -15.11482178 9.44144531 -14.09619141 8.6484375 C-12.58289088 7.45838333 -11.08134661 6.25332686 -9.58740234 5.0390625 C-8.78898926 4.39710938 -7.99057617 3.75515625 -7.16796875 3.09375 C-6.44246826 2.50271484 -5.71696777 1.91167969 -4.96948242 1.30273438 C-3 0 -3 0 0 0 Z " transform="translate(493,175)"/>
<path d="M0 0 C1.28132813 0.00902344 2.56265625 0.01804687 3.8828125 0.02734375 C7.00541221 0.05064673 10.12760025 0.08335946 13.25 0.125 C10.87684218 2.6024438 8.64887201 4.68290699 5.6953125 6.4296875 C5.00961182 6.84081787 4.32391113 7.25194824 3.61743164 7.67553711 C2.50742798 8.33114624 2.50742798 8.33114624 1.375 9 C-5.71063763 13.25633095 -12.72278859 17.61098658 -19.6875 22.0625 C-20.61820312 22.65667725 -21.54890625 23.25085449 -22.5078125 23.86303711 C-24.36749345 25.05039425 -26.22703321 26.23797256 -28.08642578 27.42578125 C-32.09279913 29.98163446 -36.10729463 32.52450597 -40.125 35.0625 C-40.88272705 35.54122559 -41.6404541 36.01995117 -42.42114258 36.51318359 C-47.85653354 39.94207024 -53.3069953 43.34639791 -58.76098633 46.74560547 C-63.76217819 49.86434166 -68.75798696 52.99159471 -73.75 56.125 C-74.57902832 56.64513672 -75.40805664 57.16527344 -76.26220703 57.70117188 C-85.13530348 63.28882952 -93.61183185 69.12307209 -101.84570312 75.63330078 C-105.78042457 78.71549925 -109.77075368 81.72567125 -113.75 84.75 C-115.57301318 86.13789407 -117.39592868 87.52591645 -119.21875 88.9140625 C-120.13527344 89.61176758 -121.05179688 90.30947266 -121.99609375 91.02832031 C-126.41500299 94.39264589 -130.83244851 97.75889195 -135.25 101.125 C-136.99999252 102.45834315 -138.74999253 103.79167647 -140.5 105.125 C-141.36625 105.785 -142.2325 106.445 -143.125 107.125 C-210.0625 158.125 -210.0625 158.125 -277 209.125 C-277.86705566 209.78564453 -278.73411133 210.44628906 -279.62744141 211.12695312 C-281.36918372 212.45393312 -283.1110448 213.78075725 -284.85302734 215.10742188 C-289.35537996 218.5366618 -293.85534202 221.96897288 -298.3515625 225.40625 C-316.09812164 238.96534889 -316.09812164 238.96534889 -324.75 245.125 C-327.97216123 242.41003082 -329.64470407 238.88663942 -331.5 235.1875 C-331.82871094 234.56681641 -332.15742188 233.94613281 -332.49609375 233.30664062 C-334.808204 228.72632096 -334.808204 228.72632096 -334.55322266 226.09204102 C-333.53610541 223.60118581 -332.4408295 222.81596117 -330.2265625 221.3046875 C-329.08876343 220.5171106 -329.08876343 220.5171106 -327.92797852 219.71362305 C-327.08549561 219.14812744 -326.2430127 218.58263184 -325.375 218 C-324.48288818 217.38874268 -323.59077637 216.77748535 -322.67163086 216.14770508 C-319.70768168 214.12502202 -316.73106779 212.12235819 -313.75 210.125 C-312.76112793 209.46193848 -311.77225586 208.79887695 -310.75341797 208.11572266 C-306.4800332 205.25558324 -302.20219189 202.40222681 -297.91796875 199.55834961 C-288.20356355 193.10892357 -278.53344354 186.59538747 -268.875 180.0625 C-268.09569122 179.53546478 -267.31638245 179.00842957 -266.51345825 178.46542358 C-262.52068583 175.76503519 -258.52830376 173.06407047 -254.53613281 170.36279297 C-247.54386807 165.63193729 -240.54805018 160.90634105 -233.5524292 156.18045044 C-229.70146728 153.57885886 -225.85074607 150.97691105 -222 148.375 C-220.45833448 147.33333163 -218.91666781 146.29166497 -217.375 145.25 C-216.2303125 144.4765625 -216.2303125 144.4765625 -215.0625 143.6875 C-200.41666667 133.79166667 -185.77083333 123.89583333 -171.125 114 C-169.98048622 113.2266758 -169.98048622 113.2266758 -168.81285095 112.43772888 C-167.27002465 111.39528418 -165.72718813 110.35285459 -164.18434143 109.31044006 C-160.34783366 106.71830077 -156.51149944 104.12590539 -152.67553711 101.53295898 C-145.52807429 96.70197066 -138.37897563 91.87346108 -131.22390747 87.05374146 C-127.8878716 84.80633427 -124.55278957 82.55751379 -121.21777344 80.30859375 C-119.64581792 79.2491353 -118.07340857 78.1903498 -116.50048828 77.13232422 C-97.05518656 64.41014689 -97.05518656 64.41014689 -79.375 49.4375 C-78.09765478 48.20307982 -76.81901017 46.97000279 -75.5390625 45.73828125 C-74.91950684 45.14047852 -74.29995117 44.54267578 -73.66162109 43.92675781 C-71.04799585 41.46334092 -68.34359436 39.1129245 -65.62939453 36.76147461 C-62.99934156 34.47136743 -60.43840076 32.11457744 -57.875 29.75 C-53.34226564 25.57885128 -48.7848671 21.4372721 -44.19921875 17.32421875 C-42.48978466 15.78927235 -40.78436472 14.24984884 -39.08203125 12.70703125 C-37.77298828 11.52173828 -37.77298828 11.52173828 -36.4375 10.3125 C-35.65761719 9.60480469 -34.87773437 8.89710937 -34.07421875 8.16796875 C-33.30722656 7.49378906 -32.54023438 6.81960937 -31.75 6.125 C-31.07582031 5.41988281 -30.40164063 4.71476562 -29.70703125 3.98828125 C-21.26043583 -1.33407808 -9.60936875 -0.13039853 0 0 Z " transform="translate(346.75,92.875)"/>
</svg>
